<svg width="16" height="16" viewBox="0 0 16 16" fill="none" xmlns="http://www.w3.org/2000/svg">
<g clip-path="url(#clip0_2325_2982)">
<rect width="16" height="16" rx="2" fill="white"/>
<g clip-path="url(#clip1_2325_2982)">
<path d="M10.4411 6.56445H13.6336C13.9352 6.56445 14.1797 6.80868 14.1797 7.10996V10.0146C14.1797 11.1219 13.2811 12.0195 12.1726 12.0195H12.1631C11.0546 12.0197 10.1559 11.1222 10.1557 10.0149C10.1557 10.0148 10.1557 10.0147 10.1557 10.0146V6.84956C10.1557 6.6921 10.2835 6.56445 10.4411 6.56445Z" fill="#5059C9"/>
<path d="M12.5988 5.99023C13.3132 5.99023 13.8923 5.41179 13.8923 4.69824C13.8923 3.98469 13.3132 3.40625 12.5988 3.40625C11.8845 3.40625 11.3054 3.98469 11.3054 4.69824C11.3054 5.41179 11.8845 5.99023 12.5988 5.99023Z" fill="#5059C9"/>
<path d="M8.57485 5.99024C9.60668 5.99024 10.4431 5.15471 10.4431 4.12403C10.4431 3.09334 9.60668 2.25781 8.57485 2.25781C7.54303 2.25781 6.70657 3.09334 6.70657 4.12403C6.70657 5.15471 7.54303 5.99024 8.57485 5.99024Z" fill="#7B83EB"/>
<path d="M11.066 6.56445H5.7963C5.49828 6.57182 5.26253 6.81887 5.26945 7.11657V10.4295C5.22783 12.216 6.64276 13.6985 8.43115 13.7422C10.2195 13.6985 11.6345 12.216 11.5929 10.4295V7.11657C11.5998 6.81887 11.364 6.57182 11.066 6.56445Z" fill="#7B83EB"/>
<path opacity="0.2" d="M8.1437 5.36721V5.93855C7.56166 5.80087 7.0808 5.39312 6.85028 4.8418H7.61771C7.90775 4.8429 8.1426 5.07749 8.1437 5.36721Z" fill="black"/>
<path d="M2.34716 4.8418H7.61686C7.90783 4.8418 8.14371 5.07742 8.14371 5.36807V10.6319C8.14371 10.9226 7.90782 11.1582 7.61686 11.1582H2.34716C2.05619 11.1582 1.82031 10.9226 1.82031 10.6319V5.36807C1.82031 5.07742 2.0562 4.8418 2.34716 4.8418Z" fill="#5059C9"/>
<path d="M6.36856 6.84527H5.31513V9.71062H4.64399V6.84527H3.59546V6.28943H6.36856V6.84527Z" fill="white"/>
</g>
</g>
<defs>
<clipPath id="clip0_2325_2982">
<rect width="16" height="16" fill="white"/>
</clipPath>
<clipPath id="clip1_2325_2982">
<rect width="12.3594" height="11.4844" fill="white" transform="translate(1.82031 2.25781)"/>
</clipPath>
</defs>
</svg>
