<svg width="16" height="16" viewBox="0 0 16 16" fill="none" xmlns="http://www.w3.org/2000/svg">
<rect y="3.5" width="9" height="9" rx="1" fill="white"/>
<g clip-path="url(#clip0_2377_3239)">
<path d="M4.13314 8.86786C5.3108 8.86786 6.26542 7.91802 6.26542 6.74643C6.26542 5.57484 5.31063 4.625 4.13314 4.625C2.95564 4.625 2.00085 5.57484 2.00085 6.74643C2.00085 7.91802 2.95553 8.86786 4.13314 8.86786Z" fill="#03748A"/>
<path d="M5.75532 9.96076C6.73666 9.96076 7.53221 9.16932 7.53221 8.19291C7.53221 7.2165 6.73666 6.42505 5.75532 6.42505C4.77404 6.42505 3.97849 7.2165 3.97849 8.19291C3.97849 9.16932 4.77404 9.96076 5.75532 9.96076Z" fill="#06A0B4"/>
<path d="M4.39954 11.375C5.23368 11.375 5.90987 10.7022 5.90987 9.87231C5.90987 9.04241 5.23368 8.36963 4.39954 8.36963C3.5654 8.36963 2.88922 9.04241 2.88922 9.87231C2.88922 10.7022 3.5654 11.375 4.39954 11.375Z" fill="#2DDCDF"/>
<path d="M1.46777 7.68373C1.46777 7.54821 1.57763 7.43835 1.71315 7.43835H4.27511C4.41062 7.43835 4.52048 7.54821 4.52048 7.68373V10.2457C4.52048 10.3812 4.41062 10.4911 4.27511 10.4911H1.71315C1.57763 10.4911 1.46777 10.3812 1.46777 10.2457V7.68373Z" fill="#018995"/>
<path d="M2.33066 9.5053L2.65944 9.33454C2.69658 9.40908 2.74483 9.46399 2.8045 9.49929C2.86488 9.53458 2.93105 9.55226 3.00266 9.55226C3.08243 9.55226 3.14328 9.53623 3.18509 9.50412C3.22701 9.47124 3.24789 9.42192 3.24789 9.35628C3.24789 9.30502 3.22778 9.26171 3.18751 9.22641C3.14724 9.19035 3.07593 9.16307 2.97357 9.14463C2.7786 9.10933 2.63674 9.04764 2.54821 8.95943C2.4604 8.87116 2.41652 8.76133 2.41652 8.62999C2.41652 8.46648 2.47447 8.33584 2.59061 8.23791C2.70652 8.14016 2.85973 8.09131 3.04991 8.09131C3.17793 8.09131 3.29076 8.11741 3.38821 8.16944C3.48573 8.22147 3.56307 8.29613 3.62032 8.39317L3.29892 8.55787C3.2635 8.50342 3.22518 8.46406 3.18414 8.44008C3.14298 8.41515 3.09154 8.40278 3.02945 8.40278C2.95529 8.40278 2.89894 8.41881 2.8602 8.45092C2.82236 8.48303 2.80344 8.52469 2.80344 8.57596C2.80344 8.62003 2.82159 8.65892 2.85778 8.69257C2.89486 8.72544 2.96889 8.75231 3.08018 8.77311C3.26711 8.80841 3.40655 8.87252 3.49826 8.96562C3.59093 9.05777 3.63723 9.17438 3.63723 9.31557C3.63723 9.48709 3.582 9.62297 3.47165 9.72314C3.36125 9.82331 3.20372 9.8734 2.99917 9.8734C2.85098 9.8734 2.71716 9.84128 2.598 9.77717C2.47962 9.7123 2.39062 9.62161 2.33095 9.5053H2.33066Z" fill="white"/>
</g>
<g clip-path="url(#clip1_2377_3239)">
<path d="M10.9375 10.0625L15.0625 5.9375" stroke="black" stroke-miterlimit="10" stroke-linejoin="round"/>
<path d="M10.9375 5.9375L15.0625 10.0625" stroke="black" stroke-miterlimit="10" stroke-linejoin="round"/>
</g>
<defs>
<clipPath id="clip0_2377_3239">
<rect width="6.75" height="6.75" fill="white" transform="translate(1.125 4.625)"/>
</clipPath>
<clipPath id="clip1_2377_3239">
<rect width="6" height="6" fill="white" transform="translate(10 5)"/>
</clipPath>
</defs>
</svg>
