<svg width="16" height="16" viewBox="0 0 16 16" fill="none" xmlns="http://www.w3.org/2000/svg">
<g clip-path="url(#clip0_2377_3166)">
<rect width="10" height="10" rx="1" fill="white"/>
<g clip-path="url(#clip1_2377_3166)">
<path d="M4.59238 5.96429C5.90089 5.96429 6.96158 4.90891 6.96158 3.60714C6.96158 2.30537 5.90071 1.25 4.59238 1.25C3.28405 1.25 2.22318 2.30537 2.22318 3.60714C2.22318 4.90891 3.28392 5.96429 4.59238 5.96429Z" fill="#03748A"/>
<path d="M6.39483 7.17857C7.4852 7.17857 8.36915 6.29919 8.36915 5.21429C8.36915 4.12939 7.4852 3.25 6.39483 3.25C5.30451 3.25 4.42056 4.12939 4.42056 5.21429C4.42056 6.29919 5.30451 7.17857 6.39483 7.17857Z" fill="#06A0B4"/>
<path d="M4.88837 8.74999C5.81519 8.74999 6.56651 8.00246 6.56651 7.08035C6.56651 6.15824 5.81519 5.41071 4.88837 5.41071C3.96155 5.41071 3.21024 6.15824 3.21024 7.08035C3.21024 8.00246 3.96155 8.74999 4.88837 8.74999Z" fill="#2DDCDF"/>
<path d="M1.63086 4.64859C1.63086 4.49801 1.75293 4.37595 1.9035 4.37595H4.75012C4.90069 4.37595 5.02276 4.49801 5.02276 4.64859V7.4952C5.02276 7.64578 4.90069 7.76785 4.75012 7.76785H1.9035C1.75293 7.76785 1.63086 7.64578 1.63086 7.4952V4.64859Z" fill="#018995"/>
<path d="M2.58963 6.67253L2.95495 6.48279C2.99621 6.56561 3.04983 6.62663 3.11612 6.66585C3.18321 6.70507 3.25673 6.72471 3.3363 6.72471C3.42493 6.72471 3.49254 6.7069 3.539 6.67122C3.58558 6.63468 3.60878 6.57989 3.60878 6.50695C3.60878 6.44999 3.58644 6.40187 3.54169 6.36265C3.49695 6.32259 3.41771 6.29227 3.30397 6.27178C3.08734 6.23256 2.92972 6.16402 2.83136 6.06601C2.73379 5.96793 2.68503 5.84589 2.68503 5.69996C2.68503 5.51828 2.74942 5.37313 2.87847 5.26432C3.00725 5.1557 3.17749 5.10143 3.3888 5.10143C3.53105 5.10143 3.65641 5.13043 3.76469 5.18824C3.87304 5.24605 3.95898 5.329 4.02258 5.43683L3.66548 5.61982C3.62612 5.55933 3.58355 5.51559 3.53795 5.48895C3.49222 5.46125 3.43505 5.4475 3.36606 5.4475C3.28367 5.4475 3.22105 5.46531 3.17802 5.50099C3.13596 5.53667 3.11494 5.58296 3.11494 5.63992C3.11494 5.68889 3.13511 5.7321 3.17532 5.76949C3.21652 5.80602 3.29878 5.83588 3.42244 5.85899C3.63013 5.8982 3.78506 5.96944 3.88697 6.07288C3.98993 6.17528 4.04138 6.30484 4.04138 6.46171C4.04138 6.6523 3.98001 6.80327 3.8574 6.91457C3.73473 7.02587 3.55969 7.08152 3.33242 7.08152C3.16777 7.08152 3.01908 7.04584 2.88668 6.97461C2.75514 6.90252 2.65625 6.80177 2.58996 6.67253H2.58963Z" fill="white"/>
</g>
<path d="M16 14L13.5 12V13.5H10.5C10.2239 13.5 10 13.7239 10 14C10 14.2761 10.2239 14.5 10.5 14.5H13.5V16L16 14Z" fill="black"/>
</g>
<defs>
<clipPath id="clip0_2377_3166">
<rect width="16" height="16" fill="white"/>
</clipPath>
<clipPath id="clip1_2377_3166">
<rect width="7.5" height="7.5" fill="white" transform="translate(1.25 1.25)"/>
</clipPath>
</defs>
</svg>
