<svg width="16" height="16" viewBox="0 0 16 16" fill="none" xmlns="http://www.w3.org/2000/svg">
<path d="M0.5 13.6096V2.39039L7.5 0.640388V15.3596L0.5 13.6096Z" fill="#00666A" stroke="#00666A"/>
<rect x="10.25" y="11.25" width="5.5" height="0.5" stroke="black" stroke-width="0.5"/>
<rect x="10.25" y="13.25" width="5.5" height="0.5" stroke="black" stroke-width="0.5"/>
<rect x="10.25" y="15.25" width="5.5" height="0.5" stroke="black" stroke-width="0.5"/>
<path d="M13.5 10L16 7H14V1H10V2H13.0002V7H11L13.5 10Z" fill="black"/>
<path d="M4.74554 9.88782C4.75626 9.56499 4.68121 9.32287 4.56327 9.14532C4.4346 8.97583 4.20944 8.7902 3.87707 8.59651C3.26592 8.27368 2.82632 7.92664 2.54755 7.54731C2.29023 7.17606 2.15084 6.74831 2.14012 6.23985C2.15084 5.63455 2.32239 5.14223 2.68694 4.74677C3.0622 4.32709 3.53397 4.0769 4.0915 4.01233C4.45605 3.97198 4.79915 4.02847 5.08864 4.2141C5.37813 4.39166 5.61401 4.65799 5.7534 5.02924C5.92495 5.40857 5.98928 5.86053 5.98928 6.35284C5.58899 6.3636 5.18514 6.37437 4.7777 6.38513C4.76698 6.0058 4.70265 5.7314 4.58471 5.54577C4.47749 5.36014 4.29522 5.27137 4.07006 5.28751C3.8449 5.30365 3.68407 5.39243 3.56613 5.56191C3.43747 5.7314 3.38386 5.94124 3.37314 6.20757C3.38386 6.40934 3.45891 6.60304 3.58757 6.76445C3.72696 6.93394 3.95212 7.11149 4.29522 7.28905C4.89565 7.57152 5.3138 7.94278 5.58185 8.36246C5.86062 8.79827 5.98928 9.34708 6 10.017C6 10.7352 5.82845 11.276 5.49607 11.6311C5.15297 11.9539 4.69193 12.0669 4.11295 11.962C3.72696 11.8894 3.36242 11.736 3.04076 11.4778C2.7191 11.2276 2.45105 10.9047 2.2795 10.5254C2.09723 10.1461 1.99001 9.71027 2.00074 9.23409C2.40817 9.26638 2.81917 9.30135 3.23375 9.33901C3.24447 9.77483 3.30881 10.0977 3.44819 10.3156C3.58757 10.5335 3.79129 10.6545 4.11295 10.6949C4.5311 10.7514 4.75626 10.4931 4.74554 9.88782Z" fill="white"/>
</svg>
