<svg width="16" height="16" viewBox="0 0 16 16" fill="none" xmlns="http://www.w3.org/2000/svg">
<g clip-path="url(#clip0_2377_3209)">
<rect x="6" width="10" height="10" rx="1" fill="white"/>
<g clip-path="url(#clip1_2377_3209)">
<path d="M10.5924 5.96429C11.9009 5.96429 12.9616 4.90891 12.9616 3.60714C12.9616 2.30537 11.9007 1.25 10.5924 1.25C9.28405 1.25 8.22318 2.30537 8.22318 3.60714C8.22318 4.90891 9.28392 5.96429 10.5924 5.96429Z" fill="#03748A"/>
<path d="M12.3948 7.17857C13.4852 7.17857 14.3691 6.29919 14.3691 5.21429C14.3691 4.12939 13.4852 3.25 12.3948 3.25C11.3045 3.25 10.4205 4.12939 10.4205 5.21429C10.4205 6.29919 11.3045 7.17857 12.3948 7.17857Z" fill="#06A0B4"/>
<path d="M10.8884 8.75005C11.8152 8.75005 12.5665 8.00252 12.5665 7.08041C12.5665 6.1583 11.8152 5.41077 10.8884 5.41077C9.96156 5.41077 9.21025 6.1583 9.21025 7.08041C9.21025 8.00252 9.96156 8.75005 10.8884 8.75005Z" fill="#2DDCDF"/>
<path d="M7.63086 4.64862C7.63086 4.49804 7.75293 4.37598 7.9035 4.37598H10.7501C10.9007 4.37598 11.0228 4.49804 11.0228 4.64862V7.49524C11.0228 7.64581 10.9007 7.76788 10.7501 7.76788H7.9035C7.75293 7.76788 7.63086 7.64581 7.63086 7.49524V4.64862Z" fill="#018995"/>
<path d="M8.58961 6.67254L8.95493 6.48281C8.9962 6.56563 9.04981 6.62665 9.11611 6.66586C9.18319 6.70508 9.25671 6.72472 9.33628 6.72472C9.42492 6.72472 9.49253 6.70691 9.53898 6.67123C9.58557 6.6347 9.60876 6.5799 9.60876 6.50697C9.60876 6.45001 9.58642 6.40189 9.54168 6.36267C9.49693 6.3226 9.41769 6.29229 9.30396 6.2718C9.08733 6.23258 8.9297 6.16403 8.83134 6.06602C8.73377 5.96795 8.68502 5.84591 8.68502 5.69997C8.68502 5.51829 8.74941 5.37314 8.87845 5.26433C9.00723 5.15572 9.17747 5.10144 9.38878 5.10144C9.53103 5.10144 9.6564 5.13044 9.76468 5.18825C9.87302 5.24607 9.95897 5.32902 10.0226 5.43685L9.66546 5.61984C9.62611 5.55934 9.58353 5.51561 9.53793 5.48896C9.4922 5.46127 9.43504 5.44752 9.36605 5.44752C9.28365 5.44752 9.22104 5.46533 9.178 5.50101C9.13595 5.53669 9.11492 5.58298 9.11492 5.63994C9.11492 5.68891 9.1351 5.73212 9.17531 5.7695C9.2165 5.80604 9.29877 5.83589 9.42242 5.859C9.63011 5.89822 9.78505 5.96945 9.88695 6.0729C9.98991 6.17529 10.0414 6.30486 10.0414 6.46173C10.0414 6.65231 9.97999 6.80329 9.85739 6.91459C9.73472 7.02589 9.55968 7.08154 9.33241 7.08154C9.16775 7.08154 9.01906 7.04586 8.88667 6.97462C8.75513 6.90254 8.65624 6.80178 8.58994 6.67254H8.58961Z" fill="white"/>
</g>
<path d="M6 14L3.5 12V13.5H0.5C0.223858 13.5 0 13.7239 0 14C0 14.2761 0.223858 14.5 0.5 14.5H3.5V16L6 14Z" fill="black"/>
</g>
<defs>
<clipPath id="clip0_2377_3209">
<rect width="16" height="16" fill="white"/>
</clipPath>
<clipPath id="clip1_2377_3209">
<rect width="7.5" height="7.5" fill="white" transform="translate(7.25 1.25)"/>
</clipPath>
</defs>
</svg>
