<svg width="16" height="16" viewBox="0 0 16 16" fill="none" xmlns="http://www.w3.org/2000/svg">
<g clip-path="url(#clip0_2377_3149)">
<rect x="4" width="8" height="8" rx="1" fill="white"/>
<g clip-path="url(#clip1_2377_3149)">
<path d="M7.6739 4.77143C8.72071 4.77143 9.56926 3.92713 9.56926 2.88571C9.56926 1.8443 8.72056 1 7.6739 1C6.62723 1 5.77853 1.8443 5.77853 2.88571C5.77853 3.92713 6.62713 4.77143 7.6739 4.77143Z" fill="#03748A"/>
<path d="M9.11585 5.74285C9.98815 5.74285 10.6953 5.03934 10.6953 4.17142C10.6953 3.3035 9.98815 2.59999 9.11585 2.59999C8.24359 2.59999 7.53644 3.3035 7.53644 4.17142C7.53644 5.03934 8.24359 5.74285 9.11585 5.74285Z" fill="#06A0B4"/>
<path d="M7.91072 7C8.65217 7 9.25322 6.40197 9.25322 5.66428C9.25322 4.92659 8.65217 4.32857 7.91072 4.32857C7.16926 4.32857 6.56821 4.92659 6.56821 5.66428C6.56821 6.40197 7.16926 7 7.91072 7Z" fill="#2DDCDF"/>
<path d="M5.30469 3.71888C5.30469 3.59842 5.40234 3.50076 5.5228 3.50076H7.80009C7.92056 3.50076 8.01821 3.59842 8.01821 3.71888V5.99617C8.01821 6.11663 7.92056 6.21428 7.80009 6.21428H5.5228C5.40234 6.21428 5.30469 6.11663 5.30469 5.99617V3.71888Z" fill="#018995"/>
<path d="M6.07169 5.33801L6.36394 5.18622C6.39695 5.25248 6.43984 5.3013 6.49288 5.33267C6.54655 5.36404 6.60537 5.37976 6.66902 5.37976C6.73993 5.37976 6.79402 5.36551 6.83118 5.33696C6.86845 5.30774 6.887 5.2639 6.887 5.20555C6.887 5.15998 6.86913 5.12149 6.83333 5.09011C6.79754 5.05806 6.73415 5.03381 6.64316 5.01741C6.46986 4.98604 6.34376 4.9312 6.26507 4.8528C6.18701 4.77433 6.14801 4.67671 6.14801 4.55996C6.14801 4.41461 6.19952 4.29849 6.30276 4.21144C6.40578 4.12455 6.54197 4.08113 6.71102 4.08113C6.82482 4.08113 6.92511 4.10433 7.01174 4.15058C7.09841 4.19683 7.16717 4.26319 7.21805 4.34946L6.93236 4.49585C6.90088 4.44745 6.86682 4.41247 6.83034 4.39115C6.79375 4.36899 6.74802 4.35799 6.69283 4.35799C6.62692 4.35799 6.57682 4.37224 6.54239 4.40079C6.50875 4.42933 6.49193 4.46636 6.49193 4.51193C6.49193 4.55111 6.50807 4.58567 6.54024 4.61558C6.5732 4.64481 6.63901 4.66869 6.73793 4.68718C6.90409 4.71855 7.02803 4.77554 7.10956 4.85829C7.19192 4.94021 7.23308 5.04386 7.23308 5.16936C7.23308 5.32183 7.18399 5.44261 7.0859 5.53165C6.98777 5.62069 6.84774 5.66521 6.66592 5.66521C6.53419 5.66521 6.41524 5.63666 6.30933 5.57968C6.20409 5.52201 6.12499 5.4414 6.07195 5.33801H6.07169Z" fill="white"/>
</g>
<path opacity="0.25" d="M8 12H7V14H8V12Z" fill="black"/>
<path opacity="0.35" d="M23 12H8V14H23V12Z" fill="black"/>
<path d="M0 11H1V15H0V11Z" fill="black"/>
<path opacity="0.25" d="M1 11H2V15H1V11Z" fill="black"/>
<path opacity="0.35" d="M2 14H3V15H2V14Z" fill="black"/>
<path d="M3 16H2V10H3V11H6V12H7V14H6V15H3V16Z" fill="black"/>
</g>
<defs>
<clipPath id="clip0_2377_3149">
<rect width="16" height="16" fill="white"/>
</clipPath>
<clipPath id="clip1_2377_3149">
<rect width="6" height="6" fill="white" transform="translate(5 1)"/>
</clipPath>
</defs>
</svg>
